<?xml version="1.0" encoding="UTF-8" standalone="no"?>
<svg
   xmlns:dc="http://purl.org/dc/elements/1.1/"
   xmlns:cc="http://creativecommons.org/ns#"
   xmlns:rdf="http://www.w3.org/1999/02/22-rdf-syntax-ns#"
   xmlns:svg="http://www.w3.org/2000/svg"
   xmlns="http://www.w3.org/2000/svg"
   xmlns:xlink="http://www.w3.org/1999/xlink"
   xmlns:sodipodi="http://sodipodi.sourceforge.net/DTD/sodipodi-0.dtd"
   xmlns:inkscape="http://www.inkscape.org/namespaces/inkscape"
   version="1.1"
   width="320"
   height="180"
   viewBox="0 0 320 180"
   id="svg2"
   inkscape:version="0.92.0 r15299"
   sodipodi:docname="banner.svg"
   inkscape:export-filename="C:\home\projects\BlankDaydream\gfx-src\banner.png"
   inkscape:export-xdpi="96"
   inkscape:export-ydpi="96">
  <sodipodi:namedview
     pagecolor="#cccccc"
     bordercolor="#666666"
     borderopacity="1"
     objecttolerance="10"
     gridtolerance="10"
     guidetolerance="10"
     inkscape:pageopacity="0"
     inkscape:pageshadow="2"
     inkscape:window-width="1680"
     inkscape:window-height="988"
     id="namedview6"
     showgrid="false"
     inkscape:zoom="1"
     inkscape:cx="98.61202"
     inkscape:cy="90.43366"
     inkscape:window-x="-8"
     inkscape:window-y="-8"
     inkscape:window-maximized="1"
     inkscape:current-layer="svg2"
     showguides="true"
     inkscape:guide-bbox="true" />
  <metadata
     id="metadata10">
    <rdf:RDF>
      <cc:Work
         rdf:about="">
        <dc:format>image/svg+xml</dc:format>
        <dc:type
           rdf:resource="http://purl.org/dc/dcmitype/StillImage" />
        <dc:title />
      </cc:Work>
    </rdf:RDF>
  </metadata>
  <defs
     id="defs8">
    <linearGradient
       inkscape:collect="always"
       id="linearGradient5349">
      <stop
         style="stop-color:#263238;stop-opacity:0.2"
         offset="0"
         id="stop5345" />
      <stop
         id="stop5359"
         offset="0.66000003"
         style="stop-color:#263238;stop-opacity:0.1" />
      <stop
         style="stop-color:#263238;stop-opacity:0;"
         offset="1"
         id="stop5347" />
    </linearGradient>
    <linearGradient
       inkscape:collect="always"
       xlink:href="#linearGradient5349"
       id="linearGradient5351"
       x1="18"
       y1="40"
       x2="210.47656"
       y2="231.72656"
       gradientUnits="userSpaceOnUse" />
  </defs>
  <rect
     style="opacity:1;fill:#388e3c;fill-opacity:1;fill-rule:nonzero;stroke:none;stroke-width:1;stroke-linecap:butt;stroke-linejoin:miter;stroke-miterlimit:4;stroke-dasharray:none;stroke-opacity:1"
     id="rect4150"
     width="320"
     height="180"
     x="0"
     y="0" />
  <path
     d="M 113.23438 39.861328 C 109.31819 39.902279 105.3023 40.369688 101.50977 40.003906 L 28.003906 40.003906 C 18.216246 39.910686 17.342283 50.543535 18.003906 57.892578 C 18.108892 75.856973 17.792898 93.84046 18.164062 111.79297 C 20.353441 118.59889 27.132452 122.37766 31.566406 127.68945 C 49.015758 145.12272 66.460695 162.56095 83.904297 180 L 262.20312 180 C 258.03692 176.0745 253.77409 172.2152 250.06055 167.98438 C 208.13623 126.10693 166.31777 84.115011 124.35547 42.279297 C 120.96632 40.205882 117.15056 39.820377 113.23438 39.861328 z "
     id="path4502"
     style="fill:url(#linearGradient5351);fill-opacity:1;stroke:none;opacity:1" />
  <g
     id="g5373">
    <text
       transform="scale(1.001375,0.99862684)"
       id="text5325"
       y="69.862556"
       x="142.93166"
       style="font-style:normal;font-variant:normal;font-weight:normal;font-stretch:normal;font-size:34.55252838px;line-height:46.84525299px;font-family:Ubuntu;-inkscape-font-specification:Ubuntu;letter-spacing:0px;word-spacing:0px;opacity:0.2;fill:#263238;fill-opacity:1;stroke:none;stroke-width:1.00000012px;stroke-linecap:butt;stroke-linejoin:miter;stroke-opacity:1"
       xml:space="preserve"><tspan
         style="font-style:normal;font-variant:normal;font-weight:500;font-stretch:normal;font-family:Ubuntu;-inkscape-font-specification:'Ubuntu Medium';fill:#263238;fill-opacity:1;stroke-width:1.00000012px"
         y="69.862556"
         x="142.93166"
         id="tspan5321"
         sodipodi:role="line">Blank</tspan><tspan
         style="font-style:normal;font-variant:normal;font-weight:500;font-stretch:normal;font-family:Ubuntu;-inkscape-font-specification:'Ubuntu Medium';fill:#263238;fill-opacity:1;stroke-width:1.00000012px"
         id="tspan5323"
         y="116.70781"
         x="142.93166"
         sodipodi:role="line">Daydream</tspan></text>
    <text
       transform="scale(1.001375,0.99862684)"
       xml:space="preserve"
       style="font-style:normal;font-variant:normal;font-weight:normal;font-stretch:normal;font-size:34.55252838px;line-height:46.84525299px;font-family:Ubuntu;-inkscape-font-specification:Ubuntu;letter-spacing:0px;word-spacing:0px;fill:#eeeeee;fill-opacity:1;stroke:none;stroke-width:1.00000012px;stroke-linecap:butt;stroke-linejoin:miter;stroke-opacity:1"
       x="142.93166"
       y="67.869141"
       id="text4495"><tspan
         sodipodi:role="line"
         id="tspan4493"
         x="142.93166"
         y="67.869141"
         style="font-style:normal;font-variant:normal;font-weight:500;font-stretch:normal;font-family:Ubuntu;-inkscape-font-specification:'Ubuntu Medium';fill:#eeeeee;fill-opacity:1;stroke-width:1.00000012px">Blank</tspan><tspan
         sodipodi:role="line"
         x="142.93166"
         y="114.71439"
         id="tspan4497"
         style="font-style:normal;font-variant:normal;font-weight:500;font-stretch:normal;font-family:Ubuntu;-inkscape-font-specification:'Ubuntu Medium';fill:#eeeeee;fill-opacity:1;stroke-width:1.00000012px">Daydream</tspan></text>
  </g>
  <rect
     y="47"
     x="56"
     height="47"
     width="62"
     id="rect4503"
     style="opacity:1;fill:#eeeeee;fill-opacity:1;fill-rule:nonzero;stroke:none;stroke-width:1.00000012;stroke-linecap:butt;stroke-linejoin:miter;stroke-miterlimit:4;stroke-dasharray:none;stroke-opacity:1" />
  <path
     d="M 28,39.999999 C 22.45,39.999999 18,44.45 18,50 v 60 c 0,5.52285 4.47715,10 10,10 h 35.000004 v 10 h -10 v 10 H 93 V 130 H 83 v -10 h 35 c 5.52285,0 10,-4.47715 10,-10 V 50 c 0,-5.55 -4.5,-10.000001 -10,-10.000001 z M 100.5,50 h 15 v 5.000001 l -8.45215,10.000001 H 115.5 v 5.000001 h -15 v -5.000001 l 8.47657,-10.000001 H 100.5 Z m -20,10.000002 h 15 v 5 L 87.04785,75.000003 H 95.5 v 5.000001 h -15 V 75.000003 L 88.97657,65.000002 H 80.5 Z M 60.500004,70.000003 h 15 v 5 l -8.45215,10.000002 h 8.45215 v 5 h -15 v -5 l 8.47656,-10.000002 h -8.47656 z"
     id="path4"
     inkscape:connector-curvature="0" />
  <path
     style="opacity:0.2;fill:#f7f7f7;fill-opacity:1"
     d="m 28,40 c -5.55,0 -10,4.45 -10,10 v 4 c 0,-5.55 4.45,-10 10,-10 h 90 c 5.5,0 10,4.45 10,10 v -4 c 0,-5.55 -4.5,-10 -10,-10 z m 25,90 v 4 h 10 v -4 z m 30,0 v 4 h 10 v -4 z"
     id="path5375"
     inkscape:connector-curvature="0"
     sodipodi:nodetypes="sscsscssscccccccccc" />
</svg>
